<svg width="320" height="240" viewBox="0 0 320 240" xmlns="http://www.w3.org/2000/svg">
  <defs>
    <linearGradient id="grad1" x1="0%" y1="0%" x2="100%" y2="100%">
      <stop offset="0%" stop-color="#3D8BFF" stop-opacity="0.25" />
      <stop offset="100%" stop-color="#22C55E" stop-opacity="0.35" />
    </linearGradient>
    <linearGradient id="grad2" x1="0%" y1="0%" x2="0%" y2="100%">
      <stop offset="0%" stop-color="#FFFFFF" stop-opacity="0" />
      <stop offset="100%" stop-color="#111827" stop-opacity="0.08" />
    </linearGradient>
  </defs>
  <rect width="320" height="240" rx="24" fill="#F7F8FA" />
  <g transform="translate(40 32)">
    <rect width="240" height="160" rx="24" fill="url(#grad1)" />
    <rect x="16" y="24" width="208" height="112" rx="20" fill="#FFFFFF" />
    <rect x="32" y="48" width="120" height="12" rx="6" fill="#CBD5F5" />
    <rect x="32" y="72" width="96" height="8" rx="4" fill="#E5E7EB" />
    <rect x="32" y="92" width="80" height="8" rx="4" fill="#E5E7EB" />
    <g transform="translate(176 40)">
      <circle cx="20" cy="20" r="20" fill="#22C55E" opacity="0.15" />
      <path d="M12 21 L18 27 L28 15" stroke="#22C55E" stroke-width="3" stroke-linecap="round" stroke-linejoin="round" fill="none" />
    </g>
    <path d="M8 152 Q120 200 224 152" fill="url(#grad2)" />
  </g>
  <circle cx="60" cy="42" r="6" fill="#3D8BFF" opacity="0.3" />
  <circle cx="280" cy="62" r="4" fill="#22C55E" opacity="0.4" />
  <circle cx="260" cy="184" r="8" fill="#F0B429" opacity="0.4" />
</svg>
